<svg width="24" height="24" viewBox="0 0 24 24" fill="none" xmlns="http://www.w3.org/2000/svg">
<path d="M8.5 6.00001C7.95 6.00001 7.47933 5.80434 7.088 5.41301C6.69667 5.02167 6.50067 4.55067 6.5 4.00001C6.49933 3.44934 6.69533 2.97867 7.088 2.58801C7.48067 2.19734 7.95133 2.00134 8.5 2.00001C9.04867 1.99867 9.51967 2.19467 9.913 2.58801C10.3063 2.98134 10.502 3.45201 10.5 4.00001C10.498 4.54801 10.3023 5.01901 9.913 5.41301C9.52367 5.80701 9.05267 6.00267 8.5 6.00001ZM14 20H7.55C7 20 6.496 19.8043 6.038 19.413C5.58 19.0217 5.29233 18.5507 5.175 18L3 7.00001H5.05L7.25 18H14V20ZM19.5 22L16.6 17H9.65C9.16667 17 8.74567 16.8543 8.387 16.563C8.02833 16.2717 7.79933 15.884 7.7 15.4L6.6 10.05C6.41667 9.25001 6.60433 8.54167 7.163 7.92501C7.72167 7.30834 8.40067 7.00001 9.2 7.00001C9.78333 7.00001 10.3127 7.17501 10.788 7.52501C11.2633 7.87501 11.5673 8.35001 11.7 8.95001L12.8 14H16.05C16.4 14 16.725 14.0917 17.025 14.275C17.325 14.4583 17.5667 14.7 17.75 15L21.25 21L19.5 22Z" fill="#7D7D7D"/>
</svg>
