<svg width="24" height="24" viewBox="0 0 24 24" fill="none" xmlns="http://www.w3.org/2000/svg">
<path d="M7.46195 20C7.01728 20 6.63695 19.8417 6.32095 19.525C6.00495 19.2083 5.84661 18.8283 5.84595 18.385V8C5.84595 7.556 6.00428 7.176 6.32095 6.86C6.63695 6.54267 7.01695 6.384 7.46095 6.384H9.61595V4.615C9.61595 4.171 9.77395 3.791 10.0899 3.475C10.4059 3.159 10.7859 3.00067 11.2299 3H12.7699C13.2139 3 13.5939 3.15833 13.9099 3.475C14.2259 3.79167 14.3843 4.17167 14.3849 4.615V6.385H16.5389C16.9829 6.385 17.3629 6.543 17.6789 6.859C17.9956 7.17567 18.1539 7.556 18.1539 8V18.385C18.1539 18.829 17.9956 19.209 17.6789 19.525C17.3623 19.841 16.9826 19.9993 16.5399 20V20.23C16.5399 20.4367 16.4633 20.6167 16.3099 20.77C16.1566 20.9233 15.9766 21 15.7699 21C15.5633 21 15.3833 20.9233 15.2299 20.77C15.0766 20.6167 15.0003 20.4367 15.0009 20.23V20H8.99995V20.23C8.99995 20.4367 8.92328 20.6167 8.76995 20.77C8.61661 20.9233 8.43661 21 8.22995 21C8.02328 21 7.84361 20.9233 7.69095 20.77C7.53828 20.6167 7.46161 20.4367 7.46095 20.23L7.46195 20ZM10.1149 9.154C9.97295 9.154 9.85428 9.20167 9.75895 9.297C9.66361 9.39233 9.61595 9.51133 9.61595 9.654V16.731C9.61595 16.8723 9.66361 16.991 9.75895 17.087C9.85495 17.183 9.97395 17.231 10.1159 17.231C10.2579 17.231 10.3766 17.183 10.4719 17.087C10.5673 16.991 10.6153 16.8723 10.6159 16.731V9.654C10.6159 9.512 10.5676 9.39333 10.4709 9.298C10.3743 9.20267 10.2556 9.15467 10.1149 9.154ZM13.8839 9.154C13.7419 9.154 13.6233 9.202 13.5279 9.298C13.4319 9.39333 13.3839 9.512 13.3839 9.654V16.731C13.3839 16.8723 13.4323 16.991 13.5289 17.087C13.6256 17.183 13.7443 17.231 13.8849 17.231C14.0256 17.231 14.1443 17.183 14.2409 17.087C14.3376 16.991 14.3856 16.8723 14.3849 16.731V9.654C14.3849 9.512 14.3369 9.39333 14.2409 9.298C14.1449 9.202 14.0259 9.154 13.8839 9.154ZM10.6159 6.384H13.3849V4.616C13.3849 4.43667 13.3273 4.28933 13.2119 4.174C13.0966 4.05867 12.9489 4.00067 12.7689 4H11.2309C11.0509 4 10.9036 4.05767 10.7889 4.173C10.6736 4.28833 10.6159 4.436 10.6159 4.616V6.384Z" fill="#7D7D7D"/>
</svg>
