<svg id="Layer_1" viewBox="0 0 24 24" xmlns="http://www.w3.org/2000/svg" data-name="Layer 1"><path d="m22.638 2h-6.638v-2h-8v2h-6.638c-.247.613-1.302 2.58-1.362 7.5.062 4.925 1.114 6.881 1.362 7.5h21.276c.246-.613 1.302-2.58 1.362-7.5 0-4.513-1.362-7.5-1.362-7.5zm-13.638-1h6v1h-6zm12.981 15h-19.962c-.29-.773-1.019-3.059-1.019-6.5s.729-5.727 1.019-6.5h19.962c.29.773 1.019 3.059 1.019 6.5s-.729 5.727-1.019 6.5zm-9.981-10.2-2.122 2.079c-1.169 1.169-1.169 3.073 0 4.242 1.117 1.164 3.126 1.164 4.243 0 1.165-1.119 1.165-3.126-.004-4.246l-2.117-2.076zm1.414 5.614c-.756.756-2.073.756-2.829 0-.78-.78-.78-2.048-.003-2.825l1.418-1.389 1.414 1.386c.776.745.776 2.083 0 2.828zm5.586 6.586c-1.483 0-2.71 1.084-2.949 2.5h-8.102c-.24-1.416-1.466-2.5-2.949-2.5-1.654 0-3 1.346-3 3s1.346 3 3 3c1.483 0 2.71-1.084 2.949-2.5h8.101c.24 1.416 1.466 2.5 2.949 2.5 1.654 0 3-1.346 3-3s-1.346-3-3-3zm-14 5c-1.103 0-2-.897-2-2s.897-2 2-2 2 .897 2 2-.897 2-2 2zm14 0c-1.103 0-2-.897-2-2s.897-2 2-2 2 .897 2 2-.897 2-2 2z"/></svg>